<svg xmlns:xlink="http://www.w3.org/1999/xlink" preserveAspectRatio="meet" width="331" height="327" viewBox="0 0 331 327" fill="none" xmlns="http://www.w3.org/2000/svg"><path fill-rule="evenodd" clip-rule="evenodd" d="M231.454 41.9477C268.414 50.3574 302.338 76.8755 312.521 113.087C321.599 145.368 289.66 170.668 276.276 201.333C260.677 237.071 266.166 287.426 229.894 302.395C190.118 318.809 146.49 294.295 111.243 269.438C71.0945 241.126 21.3232 207.141 26.0848 158.668C30.7327 111.352 89.1237 95.3189 130.667 71.7083C162.637 53.5384 195.423 33.7492 231.454 41.9477Z" fill="#E9F3FE"></path><g filter="url(#filter0_d)" fill="none"><path fill-rule="evenodd" clip-rule="evenodd" d="M58.2886 248.533C58.2886 254.694 63.2831 259.688 69.4441 259.688H114.718C114.518 258.844 114.412 257.963 114.412 257.057C114.412 250.765 119.513 245.665 125.804 245.665C132.095 245.665 137.196 250.765 137.196 257.057C137.196 257.963 137.09 258.844 136.89 259.688L219.72 259.688C219.52 258.844 219.414 257.962 219.414 257.056C219.414 250.765 224.514 245.665 230.806 245.665C237.097 245.665 242.198 250.765 242.198 257.056C242.198 257.962 242.092 258.844 241.892 259.688H287.166C293.327 259.688 298.321 254.694 298.321 248.533V91.0529C298.321 84.8919 293.327 79.8974 287.166 79.8974L163.446 79.8974V78.6371C163.446 73.5029 159.284 69.3408 154.15 69.3408L115.784 69.3408C110.65 69.3408 106.488 73.5029 106.488 78.6371V79.8974L69.4441 79.8974C63.2831 79.8974 58.2886 84.8919 58.2886 91.0529L58.2886 248.533Z" fill="#FFFFFF"></path></g><rect x="192.056" y="189.636" width="74.2938" height="7.92467" rx="3.96234" fill="#F6F9FC"></rect><rect x="192.056" y="172.301" width="57.9492" height="7.92467" rx="3.96234" fill="#F6F9FC"></rect><rect x="192.057" y="130.777" width="48.0433" height="7.92467" rx="3.96234" fill="#E9F3FE"></rect><rect x="192.056" y="148.236" width="81.2544" height="8.05829" rx="4.02914" fill="#E9F3FE"></rect><circle cx="130.533" cy="164.266" r="43.392" fill="#E9F3FE"></circle><mask id="mask0" mask-type="alpha" maskUnits="userSpaceOnUse" x="87" y="120" width="87" height="88" fill="none"><circle cx="130.533" cy="164.266" r="43.392" fill="#E9F3FE"></circle></mask><g mask="url(#mask0)" fill="none"><path fill-rule="evenodd" clip-rule="evenodd" d="M141.89 170.866C146.184 167.496 148.942 162.258 148.942 156.377C148.942 146.21 140.7 137.968 130.533 137.968C120.366 137.968 112.124 146.21 112.124 156.377C112.124 162.258 114.882 167.496 119.176 170.866C107.464 174.567 98.9751 185.519 98.9751 198.454C98.9751 199.907 100.153 201.084 101.605 201.084C103.057 201.084 104.235 199.907 104.235 198.454C104.235 185.382 114.831 174.786 127.903 174.786H133.163C146.235 174.786 156.831 185.382 156.831 198.454C156.831 199.907 158.009 201.084 159.461 201.084C160.913 201.084 162.091 199.907 162.091 198.454C162.091 185.519 153.601 174.567 141.89 170.866ZM117.384 156.377C117.384 149.115 123.271 143.228 130.533 143.228C137.795 143.228 143.682 149.115 143.682 156.377C143.682 163.639 137.795 169.526 130.533 169.526C123.271 169.526 117.384 163.639 117.384 156.377Z" fill="#A6CFFC"></path></g><defs><filter id="filter0_d" x="39.696" y="56.326" width="277.218" height="227.533" filterUnits="userSpaceOnUse" color-interpolation-filters="sRGB"><feFlood flood-opacity="0" result="BackgroundImageFix"></feFlood><feColorMatrix in="SourceAlpha" type="matrix" values="0 0 0 0 0 0 0 0 0 0 0 0 0 0 0 0 0 0 127 0"></feColorMatrix><feOffset dy="5.57776"></feOffset><feGaussianBlur stdDeviation="9.29627"></feGaussianBlur><feColorMatrix type="matrix" values="0 0 0 0 0 0 0 0 0 0 0 0 0 0 0 0 0 0 0.05 0"></feColorMatrix><feBlend mode="normal" in2="BackgroundImageFix" result="effect1_dropShadow"></feBlend><feBlend mode="normal" in="SourceGraphic" in2="effect1_dropShadow" result="shape"></feBlend></filter></defs></svg>